<?xml version="1.0" encoding="utf-8"?>
<!-- Generator: Adobe Illustrator 26.5.0, SVG Export Plug-In . SVG Version: 6.00 Build 0)  -->
<svg version="1.1" xmlns="http://www.w3.org/2000/svg" xmlns:xlink="http://www.w3.org/1999/xlink" x="0px" y="0px"
	 viewBox="0 0 1080 720" style="enable-background:new 0 0 1080 720;" xml:space="preserve">
<style type="text/css">
	.st0{fill:#FCFAE6;}
	.st1{fill:#FFFFFF;}
	.st2{fill:none;stroke:#323232;stroke-width:2;stroke-linecap:round;stroke-linejoin:round;stroke-miterlimit:10;}
	.st3{fill:#FFE05E;}
	.st4{fill:#FF3C00;}
	.st5{fill:none;stroke:#FF3C00;stroke-width:8;stroke-linecap:round;stroke-linejoin:round;stroke-miterlimit:10;}
	.st6{fill:#323232;}
	.st7{fill:#FFCA51;}
	.st8{fill:url(#SVGID_1_);}
	.st9{fill:url(#SVGID_00000106123846824949054490000008397142546706226355_);}
	.st10{fill:none;stroke:#000000;stroke-miterlimit:10;}
	.st11{fill:url(#SVGID_00000137125478525730190240000015450890618712667041_);}
	.st12{fill:url(#SVGID_00000169553153176965640530000000761419914772699288_);}
	.st13{fill:none;stroke:#323232;stroke-width:4.5;stroke-linecap:round;stroke-linejoin:round;stroke-miterlimit:10;}
	.st14{fill:url(#SVGID_00000101788352466754767640000011846258629447070898_);}
	.st15{fill:url(#SVGID_00000081607642770991991510000001180964044896238745_);}
	.st16{fill:url(#SVGID_00000097480735286162902940000012881640925196703156_);}
	.st17{fill:none;stroke:#968BCD;stroke-width:2;stroke-linecap:round;stroke-linejoin:round;stroke-miterlimit:10;}
	.st18{fill:url(#SVGID_00000005982671669495836880000005044560184148084125_);}
	.st19{fill:#FDFBEA;stroke:#323232;stroke-width:2;stroke-linecap:round;stroke-linejoin:round;stroke-miterlimit:10;}
</style>
<g id="Bg">
	<g>
		<rect x="-18.43" y="-22.71" class="st0" width="1114.95" height="761.24"/>
	</g>
</g>
<g id="List">
	<g>
		<path class="st1" d="M434.08,89.27h332.89L627.21,618.25H241.8c0,0,17.79-8.89,32.19-41.08
			C281.11,561.25,434.08,89.27,434.08,89.27z"/>
		<g>
			<line class="st2" x1="460.55" y1="134.85" x2="632.22" y2="134.85"/>
			<line class="st2" x1="434.57" y1="303.14" x2="545.25" y2="303.14"/>
			<line class="st2" x1="430.05" y1="318.95" x2="594.95" y2="318.95"/>
			<line class="st2" x1="397.3" y1="399.14" x2="562.2" y2="399.14"/>
			<line class="st2" x1="395.04" y1="413.82" x2="507.98" y2="413.82"/>
			<line class="st2" x1="390.52" y1="496.27" x2="544.12" y2="496.27"/>
			<line class="st2" x1="387.14" y1="515.47" x2="511.37" y2="515.47"/>
			<line class="st2" x1="458.29" y1="148.41" x2="579.14" y2="148.41"/>
			<line class="st2" x1="435.7" y1="235.37" x2="605.11" y2="235.37"/>
			<line class="st2" x1="442.48" y1="194.71" x2="563.32" y2="194.71"/>
		</g>
		<polyline class="st2" points="626.74,619.51 766.78,89.68 886.5,486.1 		"/>
		<line class="st2" x1="368.95" y1="570.92" x2="432.42" y2="570.92"/>
		<circle class="st3" cx="649.35" cy="228.57" r="30.52"/>
		<circle class="st3" cx="669.68" cy="150.64" r="30.52"/>
		<circle class="st3" cx="626.76" cy="323.44" r="30.52"/>
		<circle class="st3" cx="604.17" cy="426.22" r="30.52"/>
		<circle class="st3" cx="579.33" cy="517.7" r="30.52"/>
		<g>
			<polygon class="st4" points="664.9,170.89 648.78,150.37 656.64,144.19 665.37,155.29 696.97,119.68 704.45,126.31 			"/>
		</g>
		<g>
			<polygon class="st4" points="649.37,243.73 633.25,223.21 641.12,217.04 649.84,228.14 681.44,192.52 688.92,199.16 			"/>
		</g>
		<g>
			<polygon class="st4" points="625.94,339.73 609.82,319.21 617.68,313.04 626.4,324.14 658.01,288.52 665.49,295.16 			"/>
		</g>
		<g>
			<polygon class="st4" points="603.35,441.94 587.23,421.42 595.09,415.25 603.82,426.35 635.42,390.74 642.9,397.37 			"/>
		</g>
		<g>
			<polygon class="st4" points="579.07,533.99 562.95,513.47 570.81,507.29 579.53,518.4 611.14,482.78 618.62,489.42 			"/>
		</g>
	</g>
</g>
<g id="ribbon">
	<g>
		<path class="st5" d="M326.77,219.6c43.93-13.62,91.15-16.51,136.42-8.37c16.14,2.9,32.18,7.25,46.64,14.99
			c23.82,12.76,42.51,34.81,51.18,60.4s7.24,54.46-3.92,79.07c-4.52,9.96-13.14,20.51-23.96,18.87c-7.44-1.13-12.97-8.18-14.25-15.6
			c-1.28-7.41,0.93-15.01,4.09-21.84c12.53-27.11,38.98-45.03,65.78-58.22c94.77-46.65,175.61-50.14,278.39-34.33"/>
		<circle class="st4" cx="311.63" cy="227.55" r="5.57"/>
	</g>
</g>
<g id="Mag_x5F_hair_x5F_back">
	<path class="st6" d="M302.46,258.01c0.19,6.89-0.78,14.17,2.06,20.45c6.55,14.51,17.58,15.21,22.93,20.72
		c6.4,6.59,6.78,15.25,5.08,29.93c-17.03-3.07-40.58-11.77-53.22-23.58s-21.09-28.49-21.33-45.79
		c-0.16-11.33,4.88-32.95,19.29-33.95C294.5,224.6,302.08,244.11,302.46,258.01z"/>
</g>
<g id="Mag_x5F_arm_x5F_01">
	<g>
		<path class="st7" d="M246.69,295.8c0,0-24.68,4.8-48,37.84c-13.55,19.2-19.76,28.8-25.41,44.05
			c-5.71,15.42-1.13,27.67,10.73,31.62c12.37,4.12,25.98-9.6,35.58-23.72c9.6-14.12,44.61-55.91,48-67.2
			C270.97,307.09,259.68,290.71,246.69,295.8z"/>
		<path class="st1" d="M199.07,333.07c-2.03,2.88-3.88,5.52-5.6,8.02c7.03,2.41,16.49,6.18,26.5,11.75
			c6.73,3.74,12.03,7.47,16.11,10.8c13.44-17.36,29.64-38.31,31.89-45.81c2.62-8.72-3.53-20.47-12.44-23.03
			c-2.54-0.19-5.35-0.07-8.45,0.44C247.07,295.23,222.39,300.03,199.07,333.07z"/>
	</g>
</g>
<g id="Mag_x5F_arm_x5F_02">
	<path class="st1" d="M304.48,354.34c0,0,24.85,6.02,48.19-0.75s45.55-25.22,50.45-32.38s7.91-27.86-1.13-35.01
		c-9.04-7.15-22.89,2.3-40.09,9.6c-17.32,7.34-29.36,11.86-42.73,10.35c-27.03-3.05-32.38-12.42-40.66-7.15
		c-8.28,5.27-12.42,6.02-10.54,26.35C269.84,345.68,304.48,354.34,304.48,354.34z"/>
</g>
<g id="Pencil">
	<g>
		<rect x="364.71" y="277.16" class="st3" width="68.89" height="342.35"/>
		<linearGradient id="SVGID_1_" gradientUnits="userSpaceOnUse" x1="364.7132" y1="241.1014" x2="525.7534" y2="241.1014">
			<stop  offset="0" style="stop-color:#FF3C00"/>
			<stop  offset="1" style="stop-color:#FFE05E"/>
		</linearGradient>
		<path class="st8" d="M364.71,277.54l31.62-102.42l37.27,102.24c0,0-14.12-1.88-24.28,8.85c-10.16,10.73-11.29,20.89-11.29,20.89
			s-2.82-15.25-12.42-22.59C376.37,277.44,364.71,277.54,364.71,277.54z"/>
		<path class="st6" d="M382.6,220.12c4.56,1.41,9.57,2.26,14.59,2.26c5.25,0,10.6-1.1,15.34-2.64l-16.19-44.64L382.6,220.12z"/>
	</g>
</g>
<g id="Mag_x5F_body">
	<path class="st1" d="M262.5,357.91l5.08,21.46l28.24,18.07c0,0,23.15-17.51,30.49-27.67c7.34-10.16,15.81-16.94,11.86-35.58
		s-12.42-19.76-12.42-19.76l-76.8,18.07L262.5,357.91z"/>
</g>
<g id="Mag_x5F_hair">
	<path class="st6" d="M277.37,226.34c0,0-21.65-14.68-40.85,11.29c-13.44,18.18-12.05,50.45-7.34,71.15
		c3.36,14.78,12.42,30.87,18.82,41.41c6.4,10.54,5.65,18.07,5.65,18.07l45.55-12.8c0,0-9.35-31.67-22.96-47.06
		c-8.66-9.79-12.42-22.59-13.55-28.24c-1.83-9.13-0.75-18.07-0.75-18.07s-5.27,4.94-7.91,0c-3.01-5.65,3.39-7.53,3.39-7.53
		l-0.75-11.29l6.78-5.27l9.41,4.52L277.37,226.34z"/>
</g>
<g id="Mag_x5F_head">
	<g>
		
			<linearGradient id="SVGID_00000177469543018584225810000002750828526815008401_" gradientUnits="userSpaceOnUse" x1="293.5344" y1="511.4005" x2="290.1675" y2="276.0271">
			<stop  offset="0" style="stop-color:#FF3C00"/>
			<stop  offset="1" style="stop-color:#FFE05E"/>
		</linearGradient>
		<path style="fill:url(#SVGID_00000177469543018584225810000002750828526815008401_);" d="M317.65,309.54
			c-10.92-4.52-19-2.76-32-14.68c-9.04-8.28-10.54-24.85-10.54-24.85s8.57,1.32,13.93-5.65c5.55-7.21,3.47-13.33,1.59-16.84
			c-0.69-1.29-0.55-2.86,0.33-4.02l3.19-4.19c0.6-0.79,0.19-1.94-0.77-2.18l-9.24-0.63c0,0-4.52,4.14-12.42,3.39
			c-6.89-0.66-9.79-4.89-9.79-4.89s-3.76,2.26-5.27,8.28c-1.14,4.57-0.26,8.37,0.33,10.17c-0.05,0-0.09-0.01-0.14-0.01
			c-3.64,0-6.59,2.95-6.59,6.59c0,3.64,2.95,6.59,6.59,6.59c1.28,0,2.46-0.37,3.47-1c-0.36,4.65-1.45,21.16,0.48,31.11
			c2.26,11.67,9.79,21.08,9.79,21.08s26.73,13.93,41.04,10.54c14.31-3.39,18.82-9.41,18.82-9.41S328.57,314.05,317.65,309.54z"/>
		<path class="st10" d="M276.68,252.27c1.81,2.68,5.15,4.24,8.37,3.9c3.22-0.34,6.17-2.56,7.38-5.55"/>
		<path class="st10" d="M274.27,245.86c1.67-3.42,6.79-4.49,9.69-2.02"/>
		<line class="st10" x1="251.74" y1="258.59" x2="261.94" y2="260.22"/>
	</g>
</g>
<g id="Mag_x5F_hair_x5F_02">
	<path class="st6" d="M293.18,341.91c0,0-24.31-3.1-35.06-4.49c-0.44-20.76-7.69-41.32-20.37-57.77c3.47-2.16,22.3-11.91,22.3-11.91
		s-1.92,11.22,3.01,20.71c8.98,17.25,14.31,18.82,21.08,29.74C291.25,329.64,293.18,341.91,293.18,341.91z"/>
</g>
<g id="Mag_x5F_leg_x5F_01">
	
		<linearGradient id="SVGID_00000137845267689399418070000009010873986279637402_" gradientUnits="userSpaceOnUse" x1="232.3185" y1="645.2798" x2="238.7326" y2="393.269">
		<stop  offset="0" style="stop-color:#FF3C00"/>
		<stop  offset="0.8692" style="stop-color:#FFCA51"/>
		<stop  offset="1" style="stop-color:#FFE05E"/>
	</linearGradient>
	<path style="fill:url(#SVGID_00000137845267689399418070000009010873986279637402_);" d="M267.58,379.37
		c0,0-38.97,26.8-59.29,66.64c-14.12,27.67-17.51,48.56-18.64,75.67c-1.08,25.96,4.52,45.18-3.39,56.47
		c-7.91,11.29-9.6,7.91-12.42,17.51c-1.62,5.52,2.26,10.16-2.26,14.68s-9.6,9.18-9.6,9.18h57.6c0,0,69.46-162.78,79.06-184.8
		c9.6-22.02,10.73-27.67,10.73-27.67s-14.12-12.42-24.85-19.2C273.8,381.07,267.58,379.37,267.58,379.37z"/>
</g>
<g id="Mag_x5F_leg_x5F_02">
	
		<linearGradient id="SVGID_00000032633581786109933070000018362949485915040413_" gradientUnits="userSpaceOnUse" x1="341.7055" y1="616.5293" x2="340.7976" y2="394.8618">
		<stop  offset="0" style="stop-color:#FF3C00"/>
		<stop  offset="1" style="stop-color:#FFE05E"/>
	</linearGradient>
	<path style="fill:url(#SVGID_00000032633581786109933070000018362949485915040413_);" d="M285.65,404.78l38.96,214.73h72.28
		c0,0-2.82-6.92-10.16-10.87c-7.34-3.95-9.6-11.29-9.04-19.2c0.81-11.28-5.65-16.94-9.04-23.15c-3.39-6.21,8.36-53.14,6.21-80.19
		c-3.95-49.69-17.51-63.81-30.49-86.96c-12.99-23.15-18.07-29.36-18.07-29.36L285.65,404.78z"/>
</g>
<g id="Mag_x5F_loop">
	<path class="st13" d="M265.72,380.39c4.47,1.6,39.14,15.92,36.94,31.96c-0.47,3.42-4.38,6.04-7.76,5.35
		c-3.8-0.78-5.74-5.41-4.96-9.2s3.46-6.88,6.08-9.73c9.13-9.91,26.34-27.3,39.89-45.37c0,0,10.73-14.68,1.13-31.62
		c-9.6-16.94-38.4-15.25-45.74-25.98"/>
</g>
<g id="Sweets">
	<g>
		<line class="st2" x1="396.9" y1="160.8" x2="396.9" y2="120.31"/>
		<line class="st2" x1="384.7" y1="165.12" x2="361.69" y2="131.8"/>
		<line class="st2" x1="380.32" y1="176.5" x2="340.39" y2="169.8"/>
	</g>
</g>
<g id="Mag_x5F_forearm_x5F_01">
	<g>
		<path class="st7" d="M171.21,395c0,0-1.13,11.48,16.94,21.08c22.97,12.2,33.13,8.47,42.16,3.39s10.73-13.55,5.65-19.76
			c-5.08-6.21-38.4-11.11-52.33-8.85C176.12,392.07,171.21,395,171.21,395z"/>
		<path class="st7" d="M201.83,426.83c-1.29,4.36-0.84,10.03,3.16,12.19c3.57,1.92,7.97,0.03,11.31-2.28
			c6.65-4.61,12-10.84,16.65-17.46c2.94-4.19,5.71-8.85,5.77-13.97c0.02-1.76-0.32-3.59-1.39-4.98
			C226.39,386.14,204.09,419.2,201.83,426.83z"/>
		<path class="st2" d="M204.54,421.54c-1.57,2.57-3.17,5.19-3.77,8.11c-0.6,2.92-0.02,6.22,2.25,8.27
			c2.64,2.38,6.92,2.42,10.22,0.96c3.3-1.46,5.81-4.12,8.11-6.81c5.69-6.65,10.67-13.85,14.83-21.46c1.8-3.29,3.42-7.38,1.35-10.52
			c-1.29-1.96-3.68-2.95-5.96-3.75c-9.38-3.27-19.35-5-29.34-5.12"/>
		<path class="st2" d="M204.17,436.39c5.05-7.58,9.29-15.71,12.62-24.19"/>
		<path class="st2" d="M210.1,438.08c5.05-7.58,9.29-15.71,12.62-24.19"/>
	</g>
</g>
<g id="Mag_x5F_hand">
	<g>
		
			<linearGradient id="SVGID_00000079481892210640369270000005862399513092667537_" gradientUnits="userSpaceOnUse" x1="425.3318" y1="417.6557" x2="430.1971" y2="286.179">
			<stop  offset="0" style="stop-color:#FF3C00"/>
			<stop  offset="1" style="stop-color:#FFE05E"/>
		</linearGradient>
		<path style="fill:url(#SVGID_00000079481892210640369270000005862399513092667537_);" d="M445.28,311.8
			c-4.52-7.91-11.67-11.67-11.67-11.67v19.58c0,0-15.57,7.41-21.28,10.75c-1.79,1.05-3.61,2.21-4.7,3.98
			c-1.09,1.77-1.21,4.3,0.27,5.76c1.88,1.85,5,1.08,7.48,0.18c0.76-0.28,1.52-0.55,2.28-0.83c-2.5,3.22-4.77,6.23-6.35,8.49
			c-8.57,12.32-10.45,23.44-0.28,29.27c9.95,5.71,27.63-3.75,37.65-26.73C455.07,335.89,448.96,318.24,445.28,311.8z"/>
		<path class="st2" d="M406.28,369.3c7.25-6.75,13.8-14.17,19.52-22.11"/>
		<path class="st2" d="M410.59,375.84c7.25-6.75,13.8-14.17,19.52-22.11"/>
		<path class="st2" d="M418.89,377.74c7.25-6.75,13.8-14.17,19.52-22.11"/>
	</g>
</g>
<g id="Line">
	<line class="st2" x1="243.87" y1="619.51" x2="626.74" y2="619.51"/>
</g>
<g id="Hank_x5F_body_00000106853169397864120630000009898316914368124599_">
	<g>
		
			<linearGradient id="SVGID_00000134964435243729207510000005834218369140109722_" gradientUnits="userSpaceOnUse" x1="901.1827" y1="484.4387" x2="574.7834" y2="484.4387">
			<stop  offset="0" style="stop-color:#968BCD"/>
			<stop  offset="0.1035" style="stop-color:#9B94D1"/>
			<stop  offset="0.276" style="stop-color:#A9AEDC"/>
			<stop  offset="0.495" style="stop-color:#BFD8ED"/>
			<stop  offset="0.6141" style="stop-color:#CDF1F8"/>
		</linearGradient>
		<path style="fill:url(#SVGID_00000134964435243729207510000005834218369140109722_);" d="M811.11,423.81
			c0,0-15.1-9.05-43.74-18.59c-2.98-3.64-8.87-4.77-12.45-7.95c-4.74-4.22-7.89-10.12-13.55-12.99s-13.71-3.05-19.76-1.13
			c-5.01,1.59-7.36,3.61-10.24,8.02c-28.22-2.71-58.66,28.12-62.61,66.52c-1.51,14.62-2.66,28.64-4.16,40.11
			c-6.04,11.63-11.96,15.42-15.94,18.26c-5.21,3.71-9.72,5.11-13.41,10.64c-5.2,7.77-5.61,19.76-15.09,24.15
			c-3.18,1.48-6.93,1.17-10.2,2.42c-9.25,3.52-15.18,14.53-15.18,14.53l98.09,19.19l46.75-95.42c0,0,119.98,2.39,138.92,2.54
			c34.45,0.28,42.64-45.46,42.64-45.46L811.11,423.81z"/>
		<path class="st2" d="M646.78,472.94c-1.41,12.42-2.31,27.61-2.77,32.52c-0.28,2.97-0.57,6.01-1.82,8.72
			c-3.61,7.87-14.26,11.19-16.6,19.52c-1.05,3.74-0.16,7.84-1.37,11.52c-2.03,6.2-8.95,9.06-14.93,11.65
			c-5.99,2.59-15.87,6.1-15.87,12.62"/>
		<path class="st2" d="M703.16,405.17c-4.52,0-11.29,0.38-17.69,2.26c-22.62,6.65-33.88,16.94-38.68,64.66"/>
		<path class="st2" d="M823.82,426.35c-27.95-5.08-53.28-11.81-79.62-15.53"/>
		<path class="st2" d="M763.7,403.95c0,0-17.68-5.87-17.86-4.55c-0.51,3.89-1.64,7.69-3.34,11.22c-0.43,0.9-0.97,1.85-1.89,2.23
			c-2.2,0.91-4.04-1.95-4.49-4.29c-0.61-3.21-0.66-6.53-0.15-9.76c-4.84,7.02-9.91,14.27-17.25,18.6c-2.18,1.29-4.68,2.31-7.19,1.94
			c-2.9-0.43-5.28-2.71-6.44-5.4c-1.16-2.69-1.49-5.76-0.95-8.64c1.08-5.78,5.86-13.73,10.12-17.92"/>
		<line class="st2" x1="763.7" y1="403.95" x2="783.16" y2="411.38"/>
		<path class="st2" d="M714.63,394.33c-3.77,6.62-6.76,13.68-8.91,20.99"/>
		<path class="st2" d="M719.15,397.15c-3.77,6.62-6.76,13.68-8.91,20.99"/>
		<path class="st2" d="M725.36,397.72c-3.77,6.62-6.76,13.68-8.91,20.99"/>
		<path class="st2" d="M574.78,566.11c5.08-11.01,22.88-12.22,29.35-17.75c6.2-5.31,5.61-15.17,10.05-22.02
			c4.26-6.56,12.34-9.31,18.52-14.1c6.25-4.84,10.63-12.03,12.07-19.8"/>
	</g>
</g>
<g id="Hank_x5F_head">
	<g>
		
			<linearGradient id="SVGID_00000109712957591643072340000010875106215925814692_" gradientUnits="userSpaceOnUse" x1="838.2181" y1="306.2807" x2="958.8698" y2="306.2807">
			<stop  offset="0.1304" style="stop-color:#968BCD"/>
			<stop  offset="0.2429" style="stop-color:#9B94D1"/>
			<stop  offset="0.4305" style="stop-color:#A9AEDC"/>
			<stop  offset="0.6686" style="stop-color:#BFD8ED"/>
			<stop  offset="0.7981" style="stop-color:#CDF1F8"/>
		</linearGradient>
		<path style="fill:url(#SVGID_00000109712957591643072340000010875106215925814692_);" d="M896.1,279.81c0,0-12.99-9.6-31.62,1.69
			c-6.48,3.93-9.71,14.34-14.68,15.25c-6.21,1.13-11.58-5.08-11.58-2.26s6.78,9.88,6.78,9.88l-4.24,13.27c0,0,2.82,12.99,15.81,7.91
			c12.99-5.08,14.47-8.49,14.12-4.8c-0.85,8.75-8.75,14.96-8.75,14.96l31.34,0.85c0,0-4.52-10.45-2.26-22.31
			C893.28,302.4,896.1,279.81,896.1,279.81z"/>
		<path class="st6" d="M856.01,315.57c0,0,9.41-12.05,17.32-12.8c-0.61,5.91-1.88,18.82-1.88,18.82l-41.11,20.11l14.76-38.18
			c0,0,6.97,0.47,9.41,4.14C857.51,312.18,856.01,315.57,856.01,315.57z"/>
		<path class="st6" d="M879.21,285.26c0.67,2.54-0.96,5.13-2.85,6.95c-1.9,1.82-4.18,3.34-5.46,5.63c-0.97,1.75-1.48,6.11,1.91,7.24
			c0.13,0.04,2.41-8.19,8.75-3.81c4.09,2.82-0.04,9.76-0.04,9.76l8.74,12.83c0,0,0.38-10.54,2.38-11.42
			c6.53-2.86,13.81-10.04,11.59-23.61c-0.46-2.81-1.6-5.49-3.09-7.92c-6.61-10.83-20.27-14.6-33.47-10.14
			c-14.21,4.8-13.08,22.59-13.08,22.59s4.45-5.74,5.65-7.25C866.17,278.68,877,276.87,879.21,285.26z"/>
		<circle class="st6" cx="900.81" cy="267.76" r="9.79"/>
		<circle class="st6" cx="861.72" cy="295.62" r="2.19"/>
		<path class="st17" d="M842.37,313.06c0.77,0.59,1.71,0.94,2.66,1.12c2.62,0.49,5.45-0.24,7.49-1.96"/>
		<path class="st2" d="M861.09,288.08c3.57,0.11,6.96,2.58,8.14,5.96"/>
	</g>
</g>
<g id="Hank_x5F_forearm">
	<g>
		<path class="st1" d="M817.89,351.81l-34.73,33.88c0,0-2.54,44.05,11.86,63.53c14.4,19.48,28.8,11.01,36.42,5.93
			c7.62-5.08,0.85-27.11-2.54-47.44C825.51,387.38,817.89,351.81,817.89,351.81z"/>
		
			<linearGradient id="SVGID_00000044889062711543353700000010422502022813380797_" gradientUnits="userSpaceOnUse" x1="803.9887" y1="327.0105" x2="843.4572" y2="327.0105">
			<stop  offset="0" style="stop-color:#968BCD"/>
			<stop  offset="0.1035" style="stop-color:#9B94D1"/>
			<stop  offset="0.276" style="stop-color:#A9AEDC"/>
			<stop  offset="0.495" style="stop-color:#BFD8ED"/>
			<stop  offset="0.6141" style="stop-color:#CDF1F8"/>
		</linearGradient>
		<path style="fill:url(#SVGID_00000044889062711543353700000010422502022813380797_);" d="M783.16,385.69
			c0,0,4.71-30.59,3.58-36.24c-1.13-5.65-6.78-9.41-8.28-24.85c-0.93-9.57,18.07-23.34,18.07-23.34s-3.76-28.24,0.19-32.19
			c2.27-2.27,4.33,0.19,7.34,13.55c3.7,16.43,13.84,69.18,13.84,69.18L783.16,385.69z"/>
		<path class="st2" d="M795.77,303.15c1.12,8.16,2.25,16.32,3.37,24.47"/>
		<path class="st2" d="M790.5,306.91c1.12,8.16,2.25,16.32,3.37,24.47"/>
		<path class="st2" d="M785.23,312.18c1.12,8.16,2.25,16.32,3.37,24.47"/>
		<circle class="st2" cx="811.11" cy="372.7" r="4.8"/>
	</g>
</g>
<g id="Hank_x5F_body">
	<path class="st1" d="M883.11,332.32c0,0,13.18,2.63,20.8,13.64c7.62,11.01,13.08,23.91,13.08,33.23s-14.68,70.59-14.68,70.59
		l-65.79-16.66L883.11,332.32z"/>
</g>
<g id="Hank_x5F_arm">
	<g>
		<path class="st1" d="M894.88,338.06c-5.93-4.24-20.89-10.73-36.14,1.13s-53.56,77.84-56.94,88.01
			c-3.39,10.16-9.32,30.49,9.32,33.04s40.66-11.86,59.29-42.35c22.2-36.32,25.32-48.48,27.86-59.49
			C900.81,347.38,894.88,338.06,894.88,338.06z"/>
		<path class="st2" d="M845.94,446.02c9.32-7.01,17.27-18.56,22.49-28.99c7.34-14.68,12.99-24.28,15.25-31.06"/>
	</g>
</g>
<g id="Hank_x5F_loop">
	<path class="st13" d="M800.1,269.64c3.63,17.79,25.11,116.82,28.73,134.61c0.34,1.68,0.68,3.47,0.05,5.06
		c-1.62,4.09-8.41,3.15-10.51-0.71s-0.91-8.65,0.67-12.76c4.57-11.92,11.88-22.55,19.12-33.07c5.34-7.76,10.87-16.34,18.42-21.98
		c12.4-9.27,31.62-10.16,46.31,7.34"/>
</g>
<g id="Wheelchair">
	<g>
		<polyline class="st2" points="703.54,528.84 719.35,492.7 891.58,492.7 		"/>
		<circle class="st19" cx="708.64" cy="593.4" r="14.24"/>
		<path class="st2" d="M709.02,594.52l0.45-120.27c0-15.23,12.35-27.58,27.58-27.58h163.01"/>
		<g>
			<circle class="st2" cx="708.64" cy="593.4" r="27.7"/>
		</g>
		<path class="st2" d="M956.81,318.77L956.81,318.77c-14.61,1.01-26.86,11.41-30.22,25.66l-43.48,184.41H703.54l-29.91,57.78"/>
		<g>
			<circle class="st19" cx="882.3" cy="529.24" r="90.83"/>
			<circle class="st2" cx="882.3" cy="529.24" r="27.7"/>
		</g>
		<path class="st2" d="M563.49,566.11c1.69,0.56,144.78,28.41,144.78,28.41"/>
	</g>
</g>
</svg>
